<?xml version="1.0" standalone="no"?>
<!DOCTYPE svg PUBLIC "-//W3C//DTD SVG 20010904//EN"
 "http://www.w3.org/TR/2001/REC-SVG-20010904/DTD/svg10.dtd">
<svg version="1.0" xmlns="http://www.w3.org/2000/svg"
 width="1153.000000pt" height="1153.000000pt" viewBox="0 0 1153.000000 1153.000000"
 preserveAspectRatio="xMidYMid meet">
<metadata>
Created by potrace 1.11, written by Peter Selinger 2001-2013
</metadata>
<g transform="translate(0.000000,1153.000000) scale(0.100000,-0.100000)"
fill="#000000" stroke="none">
<path d="M4838 11516 c-70 -19 -116 -59 -149 -130 -54 -118 -130 -530 -199
-1086 -22 -179 -45 -335 -50 -348 -11 -26 -29 -34 -215 -103 -77 -28 -205 -82
-284 -120 -79 -38 -153 -69 -165 -69 -28 0 -18 -7 -426 311 -740 575 -694 543
-800 543 -54 0 -75 -6 -125 -32 -154 -83 -388 -287 -746 -650 -288 -291 -450
-469 -550 -605 -78 -104 -99 -148 -106 -212 -9 -81 21 -132 228 -390 406 -505
629 -804 629 -841 0 -13 -24 -73 -54 -132 -66 -133 -123 -267 -169 -397 -48
-136 -47 -134 -67 -145 -17 -9 -179 -35 -915 -145 -165 -25 -338 -52 -384 -61
-139 -25 -208 -71 -253 -169 l-23 -50 0 -905 0 -905 27 -51 c31 -59 74 -99
136 -126 28 -13 202 -42 520 -89 852 -124 875 -128 893 -147 9 -9 27 -48 39
-87 41 -127 131 -348 196 -478 35 -71 64 -139 64 -151 0 -22 -43 -80 -505
-679 -143 -185 -275 -364 -293 -398 -45 -85 -45 -169 -2 -255 65 -128 381
-481 721 -804 570 -543 620 -583 733 -584 50 -1 74 5 121 29 33 17 228 158
433 315 619 472 656 500 679 506 15 4 61 -12 140 -49 113 -52 259 -111 427
-173 51 -19 85 -38 97 -54 14 -19 42 -186 119 -695 55 -369 107 -690 115 -715
21 -63 69 -118 129 -146 51 -24 53 -24 419 -24 l367 0 0 1103 0 1102 -1805
1805 c-993 993 -1805 1809 -1805 1815 0 6 853 863 1895 1905 l1895 1895 347
-350 c192 -193 1044 -1047 1895 -1900 l1547 -1550 -1809 -1815 -1809 -1815 0
-1097 -1 -1098 373 0 c353 0 374 1 417 21 94 42 124 95 168 289 52 229 83 426
161 1024 17 131 36 237 44 250 9 13 43 31 83 45 112 39 321 125 436 180 60 28
121 51 137 51 33 0 28 3 329 -234 779 -613 788 -619 892 -619 106 0 197 60
527 349 266 232 564 543 847 882 135 162 149 187 154 274 6 97 -19 142 -210
379 -328 407 -629 802 -642 844 -4 14 18 72 68 181 40 88 99 227 131 309 67
176 75 191 112 199 15 3 326 51 691 106 364 55 679 107 700 115 46 20 108 78
133 128 37 71 40 163 37 1022 -4 925 0 877 -74 963 -66 77 -43 72 -994 217
-492 74 -496 75 -514 88 -8 7 -33 62 -55 124 -55 155 -118 306 -191 457 -53
111 -60 133 -51 153 6 13 152 206 323 429 457 592 466 605 483 653 21 63 19
166 -5 219 -66 145 -526 638 -1065 1139 -267 249 -297 268 -404 261 -48 -4
-82 -13 -117 -32 -27 -15 -287 -207 -577 -426 -291 -220 -534 -400 -540 -400
-6 0 -72 29 -146 64 -75 35 -219 95 -319 132 -114 43 -188 76 -193 87 -6 9
-55 315 -109 680 -55 364 -106 685 -115 713 -22 73 -66 129 -127 161 l-53 28
-900 2 c-703 1 -910 -1 -947 -11z"/>
<path d="M4117 7492 l-1647 -1647 1560 -1560 1560 -1560 0 473 0 473 -662 697
c-363 383 -686 723 -717 755 l-56 58 125 119 c69 66 127 118 130 117 5 -1
1124 -1178 1171 -1232 5 -5 9 184 8 425 l0 435 -714 750 c-393 413 -714 753
-715 756 0 4 56 60 125 124 l125 117 62 -66 c35 -37 299 -315 588 -619 l525
-552 3 912 2 913 175 0 175 0 2 -932 3 -932 634 603 634 603 116 -122 c64 -68
117 -126 119 -129 1 -4 -338 -330 -753 -724 l-755 -718 0 -439 c0 -242 2 -440
5 -440 3 0 289 270 636 600 l631 600 116 -121 c65 -67 118 -125 120 -128 1 -4
-337 -330 -753 -725 l-755 -718 0 -471 0 -472 1565 1565 1565 1565 -1647 1647
c-907 907 -1650 1648 -1653 1648 -3 0 -746 -741 -1653 -1648z"/>
</g>
</svg>
